<?xml version="1.0" ?><svg style="enable-background:new 0 0 48 48; fill: #2e2d2c" version="1.1" viewBox="0 0 48 48" xml:space="preserve" xmlns="http://www.w3.org/2000/svg" xmlns:xlink="http://www.w3.org/1999/xlink"><g id="Padding__x26__Artboard"/><g id="Icons"><g><path d="M33.42985,22.47748l-13.86816-7.37891c-0.3501-0.18701-0.75732-0.24512-1.14697-0.16504    l-3.35645,0.69043c-0.56104,0.11523-1.02441,0.50098-1.23926,1.03125c-0.21533,0.53027-0.15186,1.12988,0.16992,1.60352    l2.99951,4.41211c0.3623,0.53174,0.9375,0.86182,1.57861,0.90527l6.2373,0.42383l-6.48193,0.48242    c-0.52393,0.03906-0.99365,0.31055-1.28809,0.74561l-3.0752,4.53662c-0.32422,0.47754-0.38525,1.08105-0.16406,1.61377    c0.2207,0.5332,0.69141,0.91602,1.2583,1.02393l3.55762,0.67822c0.07324,0.01416,0.14697,0.021,0.2207,0.021    c0.19287,0,0.38477-0.04736,0.55664-0.13867l14.0415-7.46777c0.56738-0.30225,0.90625-0.86621,0.90625-1.50928    C34.3361,23.3432,33.99723,22.77924,33.42985,22.47748z" style="fill:#303030;"/></g></g></svg>
