<?xml version="1.0" encoding="utf-8"?>
<!-- Generator: Adobe Illustrator 21.1.0, SVG Export Plug-In . SVG Version: 6.00 Build 0)  -->
<svg version="1.1" id="Camada_1" xmlns="http://www.w3.org/2000/svg" xmlns:xlink="http://www.w3.org/1999/xlink" x="0px" y="0px"
	 viewBox="0 0 307.7 307.7" style="enable-background:new 0 0 307.7 307.7;" xml:space="preserve">
<style type="text/css">
	.st0{fill:url(#SVGID_1_);}
	.st1{clip-path:url(#SVGID_3_);fill:#FFFFFF;}
</style>
<g>
	<linearGradient id="SVGID_1_" gradientUnits="userSpaceOnUse" x1="0.2895" y1="153.8333" x2="307.3772" y2="153.8333">
		<stop  offset="0" style="stop-color:#E64446"/>
		<stop  offset="1" style="stop-color:#F2B31C"/>
	</linearGradient>
	<path class="st0" d="M276.3,307.4H31.4c-17.1,0-31.1-14-31.1-31.1V31.4c0-17.1,14-31.1,31.1-31.1h244.9c17.1,0,31.1,14,31.1,31.1
		v244.9C307.4,293.4,293.4,307.4,276.3,307.4z"/>
	<g>
		<defs>
			<path id="SVGID_2_" d="M276.3,307.4H31.4c-17.1,0-31.1-14-31.1-31.1V31.4c0-17.1,14-31.1,31.1-31.1h244.9
				c17.1,0,31.1,14,31.1,31.1v244.9C307.4,293.4,293.4,307.4,276.3,307.4z"/>
		</defs>
		<clipPath id="SVGID_3_">
			<use xlink:href="#SVGID_2_"  style="overflow:visible;"/>
		</clipPath>
		<path class="st1" d="M320.9,268c-28.4-2-56.9-5.8-82.6-13.8c12.7-9,23-20.1,30.8-33.3c11.2-19.1,16.8-41.4,16.8-66.8
			c0-18.3-3.2-35.2-9.5-50.6c-6.3-15.4-15.4-28.6-27-39.6C237.7,53.2,224,44.8,208.1,39c-15.9-5.8-33.1-8.8-51.6-8.8
			c-10.6,0-21.2,1.2-31.6,3.5c-10.4,2.3-20.4,5.8-29.9,10.4c-20.3,9.7-36.3,23.6-48.2,41.6c-12.9,19.5-19.4,42.4-19.4,68.7
			c0,18.4,3.2,35.3,9.6,50.5c6.4,15.2,15.5,28.4,27.3,39.5c11.6,10.9,25.3,19.2,41.1,25.1c15.9,5.8,33.1,8.8,51.6,8.8
			c7.9,0,15.9-0.8,24-2.3c8.1-1.5,15.3-3.7,21.5-6.4c0.2,0.1,1.2-0.2,2.9-0.6c31,14.5,65.7,21.8,102.6,24.5
			c5.7-8.3,11.5-16.6,17.1-25C323.7,268.2,322.3,268.1,320.9,268z M208,242.2c-14.8-7.6-27.8-17.3-38.2-29.7l-33.6,3.3
			c13.5,16.2,28.8,29.3,45.3,39.9c-1.5,0.5-3,0.9-4.5,1.3c-7,1.7-13.8,2.6-20.4,2.6h-2.4c-13.2-0.1-25.2-2.9-36.1-8.3
			c-10.9-5.4-20.2-13.1-28-22.9c-7.7-9.6-13.6-20.8-17.7-33.5c-4.1-12.7-6.2-26.3-6.2-40.7c0-22.9,5.3-42.9,15.8-59.9
			c8.7-14.4,20.7-25.8,35.9-34.2c6.5-3.5,13.2-6.2,19.9-8.1c6.7-1.8,13.2-2.7,19.2-2.7h2.4c13,0.1,25,2.9,35.7,8.3
			c10.8,5.4,20.1,13,28,22.8c7.7,9.6,13.6,20.8,17.7,33.7c4.1,12.8,6.2,26.4,6.2,40.7c0,23.6-5,43.8-14.9,60.8
			C225.7,226.1,217.7,235,208,242.2z"/>
	</g>
</g>
</svg>
