<svg xmlns="http://www.w3.org/2000/svg" viewBox="0 0 83.13 94.49"><defs><style>.cls-1{fill:#e54347;}.cls-2{fill:#c3d1d8;}.cls-3{fill:#ffa91f;}</style></defs><title>Ativo 11</title><g id="Camada_2" data-name="Camada 2"><g id="Camada_1-2" data-name="Camada 1"><circle class="cls-1" cx="41.56" cy="52.93" r="41.56"/><path class="cls-2" d="M66.23,43.34c0,5.91-7.19,13.1-7.19,13.1l4.63.26a24.55,24.55,0,0,1-4.19,5.57,7.58,7.58,0,0,1-13-5.13L46.16,41.8l-.08-4.27-.07-4-.1-5.4-.11-5.94a11.56,11.56,0,1,0-8.48.2l-.1,5.74,0,1.6-.06,3.37L37,37.53l-.35,19.61a7.58,7.58,0,0,1-13,5.13,24.61,24.61,0,0,1-4.19-5.57l4.63-.26s-7.19-7.19-7.19-13.1a21.63,21.63,0,0,0-6.3,17.47l4.25-2.06a31.75,31.75,0,0,0,6.94,11C29.1,77.12,38,75.45,41.56,83.93,45.16,75.45,54,77.12,61.35,69.8a31.75,31.75,0,0,0,6.94-11l4.25,2.06A21.63,21.63,0,0,0,66.23,43.34ZM41.31,16.77a5.21,5.21,0,1,1,5.21-5.21A5.21,5.21,0,0,1,41.31,16.77Z"/><path class="cls-3" d="M55.5,29.12v7.45a98.07,98.07,0,0,1-28.78,0V29.12q1.94-.29,3.87-.49A97.77,97.77,0,0,1,55.5,29.12Z"/></g></g></svg>
