<svg xmlns="http://www.w3.org/2000/svg" viewBox="0 0 83.13 83.13"><defs><style>.cls-1{fill:#e54347;}.cls-2{fill:#9f9f9f;}.cls-3{fill:#bfbfbf;}.cls-4{fill:gray;}.cls-5{fill:#8cfff3;}.cls-6{fill:#dbfff8;}.cls-7{fill:#fff;}.cls-8{fill:#71e2ef;}.cls-9{fill:#ff0f3b;}</style></defs><title>Ativo 4</title><g id="Camada_2" data-name="Camada 2"><g id="Camada_1-2" data-name="Camada 1"><circle class="cls-1" cx="41.56" cy="41.56" r="41.56"/><path class="cls-2" d="M43.35,21.7H39.77a.89.89,0,0,1-.3-.05,6.26,6.26,0,1,1,4.17,0A.89.89,0,0,1,43.35,21.7Zm-3.42-1.79h3.26a4.47,4.47,0,1,0-3.26,0Z"/><rect class="cls-3" x="39.77" y="15.75" width="3.58" height="9.01"/><circle class="cls-4" cx="41.56" cy="45.38" r="24.26"/><path class="cls-5" d="M41.56,66.06A20.69,20.69,0,1,1,62.25,45.38,20.71,20.71,0,0,1,41.56,66.06Z"/><path class="cls-6" d="M41.56,62.48A17.11,17.11,0,1,1,58.67,45.38,17.13,17.13,0,0,1,41.56,62.48Z"/><path class="cls-7" d="M41.74,28.27C49.12,28.39,55.1,36,55.1,45.37s-6,17-13.36,17.11h-.18a17.11,17.11,0,0,1,0-34.22Z"/><path class="cls-8" d="M52.9,34l-6.29,9.53a5.37,5.37,0,0,1-1.26,5.6L39,47.9l-1.26-6.32a5.37,5.37,0,0,1,5.6-1.26Z"/><path class="cls-9" d="M37.77,41.58l7.59,7.59a5.37,5.37,0,0,1-5.6,1.26L30.14,56.8l6.37-9.62a5.37,5.37,0,0,1,1.26-5.6Z"/><circle class="cls-7" cx="41.56" cy="45.38" r="1.79"/><path class="cls-8" d="M41.56,23.8A21.58,21.58,0,1,0,63.14,45.38,21.6,21.6,0,0,0,41.56,23.8ZM56.17,58.72,54.9,57.45a17.93,17.93,0,0,0,4.64-11.18h1.79A19.72,19.72,0,0,1,56.17,58.72ZM21.79,46.27h1.79a17.93,17.93,0,0,0,4.64,11.18L27,58.72A19.72,19.72,0,0,1,21.79,46.27ZM27,32l1.27,1.27a17.93,17.93,0,0,0-4.64,11.18H21.79A19.72,19.72,0,0,1,27,32ZM61.33,44.48H59.54A17.93,17.93,0,0,0,54.9,33.3L56.17,32A19.72,19.72,0,0,1,61.33,44.48ZM41.56,61.59A16.21,16.21,0,1,1,57.78,45.38,16.23,16.23,0,0,1,41.56,61.59ZM53.64,32a17.93,17.93,0,0,0-11.18-4.64V25.61A19.72,19.72,0,0,1,54.9,30.77Zm-13-4.64A17.93,17.93,0,0,0,29.49,32l-1.27-1.27a19.72,19.72,0,0,1,12.45-5.16ZM29.49,58.72a17.93,17.93,0,0,0,11.18,4.64v1.79A19.72,19.72,0,0,1,28.22,60Zm13,4.64a17.93,17.93,0,0,0,11.18-4.64L54.9,60a19.72,19.72,0,0,1-12.45,5.16Z"/></g></g></svg>
