<?xml version="1.0" encoding="utf-8"?>
<!-- Generator: Adobe Illustrator 21.1.0, SVG Export Plug-In . SVG Version: 6.00 Build 0)  -->
<svg version="1.1" id="Camada_1" xmlns="http://www.w3.org/2000/svg" xmlns:xlink="http://www.w3.org/1999/xlink" x="0px" y="0px"
	 viewBox="0 0 400 400" style="enable-background:new 0 0 400 400;" xml:space="preserve">
<style type="text/css">
	.st0{fill:#F3B31B;}
	.st1{fill:#2E2E2D;}
	.st2{fill:#FFFFFF;}
	.st3{fill:#E9E8E8;}
	.st4{fill:#C1BEBD;}
	.st5{fill:#E64448;}
	.st6{fill:#62B1C4;}
	.st7{fill:#621E56;}
	.st8{fill:#CC7954;}
	.st9{fill:#989999;}
	.st10{fill:#EB5754;}
	.st11{fill:#CFCECE;}
	.st12{fill:#B6B5B4;}
</style>
<g>
	<circle class="st0" cx="200" cy="200" r="185.6"/>
	<g>
		<polygon class="st1" points="258.5,320.1 215.1,216.6 203.1,221.7 243.9,320.1 		"/>
		<polygon class="st1" points="156.1,320.1 196.9,221.7 184.9,216.6 141.5,320.1 		"/>
		<rect x="168.9" y="275.6" class="st1" width="62.1" height="7.9"/>
	</g>
	<rect x="85" y="240.1" class="st1" width="229.9" height="11.1"/>
	<rect x="164.1" y="94.3" class="st1" width="71.9" height="11.1"/>
	<rect x="100.6" y="105.3" class="st2" width="198.8" height="134.8"/>
	<g>
		<path class="st3" d="M205.5,206.1c-0.1-0.1-1.1-1.1-4.8-4.8l8.3-12.2c-2.9-2.9,1.8-7.6,4.7-4.7l-0.1-0.1l21.1-18.5
			c-0.9-20.4-14.8-10.9-16.6-9.6l-8.2,6.1c-5.5,4.1-13.3,2.6-16.8-3.3c-3-5-1.8-11.6,3-15.2l8.2-6.1c1.8-1.4,15-12.2-4.8-18.7
			c-13.3-3.7-28-1.6-40.2,6.8c-22.6,15.6-27.5,46.8-11.1,68.6c9,12,22.5,18.6,36.5,19.2C188.8,202.2,199.7,200.3,205.5,206.1z"/>
		<path class="st4" d="M153.3,130.5c-17.5,16.6-20.2,44.1-5.3,63.8c9,12,22.5,18.6,36.5,19.2c1.4-3.5,4-7.1,7.2-9
			C155,202.8,133.3,162.3,153.3,130.5z"/>
		<circle class="st5" cx="177.8" cy="135.6" r="6.1"/>
		<circle class="st6" cx="160.8" cy="152.6" r="7.7"/>
		<circle class="st7" cx="177.5" cy="193.3" r="7.7"/>
		<circle class="st0" cx="158.9" cy="176.7" r="7.8"/>
		<path class="st8" d="M206.7,204.3c-4.7-4.7-12.7-4.5-17.7,0.6c-6.1,6.1-7.7,14.8-4.8,21.9c7.1,2.9,15.8,1.3,21.9-4.8
			C211.2,216.9,211.5,209,206.7,204.3z"/>
		<path class="st9" d="M208.7,188.8l-8.3,12.2c1.7,1.7,7.8,7.8,9.5,9.5l12.2-8.3C220.7,200.8,210.1,190.3,208.7,188.8z"/>
		<path class="st10" d="M269.2,141.8c-3.6-3.6-8.9,0.9-9,1L213.3,184l13.8,13.8c1.8-2,39.8-45.3,41.1-46.9
			C268.3,150.8,272.8,145.4,269.2,141.8z"/>
		<path class="st11" d="M227.1,197.4l-13.5-13.5c-0.6-0.6-1.5-1-2.3-1c-1.5,0-2.2,0.9-2.7,1.4c-1.3,1.3-1.3,3.4,0,4.7l13.5,13.5
			C225.1,205.6,230.3,200.6,227.1,197.4z"/>
		<path class="st12" d="M224.5,200L211,186.6c-0.9-0.9-1.2-2.3-0.8-3.4c-0.8,0.3-1.2,0.7-1.7,1.2c-1.3,1.3-1.3,3.4,0,4.7l13.5,13.5
			c1.9,1.9,5.1,0.7,5.9-1.7C226.7,201.2,225.4,200.9,224.5,200z"/>
	</g>
</g>
</svg>
