<svg xmlns="http://www.w3.org/2000/svg" viewBox="0 0 94.59 85.3"><defs><style>.cls-1{fill:#e54347;}.cls-2{fill:#ffc91b;}.cls-3{fill:#ffedb5;}.cls-4{fill:#38c6d9;}.cls-5{fill:#71e2ef;}</style></defs><title>Ativo 1</title><g id="Camada_2" data-name="Camada 2"><g id="Camada_1-2" data-name="Camada 1"><circle class="cls-1" cx="43.55" cy="43.74" r="41.56"/><path class="cls-2" d="M8,75.79l10-6.94c1.41-1,1.93-2.68,1.16-3.79l-3.71-5.34c-.77-1.11-2.54-1.22-4-.24l-10,6.94C.1,67.4-.41,69.09.36,70.2l3.71,5.34C4.84,76.66,6.61,76.76,8,75.79Z"/><path class="cls-3" d="M75,4.67c3-2.07,9.12,1.6,13.7,8.2s5.87,13.63,2.89,15.7Z"/><path class="cls-4" d="M22.56,69.21,54.41,51.33,40.66,31.51,12.77,55.1c-1.77,1.5-2.31,3.75-1.27,5.25l5.7,8.21C18.24,70.06,20.54,70.34,22.56,69.21Z"/><path class="cls-5" d="M51.85,56.49l31.63-18L62.86,8.76,34.93,32.1c-1.82,1.52-2.39,3.83-1.32,5.37L46.36,55.85C47.43,57.39,49.79,57.66,51.85,56.49Z"/><path class="cls-2" d="M87.62,40l5.22-3.63a4.06,4.06,0,0,0,1-5.65l-20.13-29a4.06,4.06,0,0,0-5.65-1L62.87,4.35a4.06,4.06,0,0,0-1,5.65L82,39A4.06,4.06,0,0,0,87.62,40Z"/></g></g></svg>
