<svg xmlns="http://www.w3.org/2000/svg" viewBox="0 0 89.98 89.98"><defs><style>.cls-1{fill:#e54347;}.cls-2{fill:#cc722e;}.cls-3{fill:#ffa91f;}</style></defs><title>Ativo 10</title><g id="Camada_2" data-name="Camada 2"><g id="Camada_1-2" data-name="Camada 1"><circle class="cls-1" cx="44.99" cy="44.99" r="41.56"/><path class="cls-2" d="M47.38,51.63v36A2.39,2.39,0,0,1,45,90h0a2.38,2.38,0,0,1-2.39-2.39V2.39A2.39,2.39,0,0,1,45,0h0a2.39,2.39,0,0,1,2.39,2.39v36"/><path class="cls-2" d="M42,51.37,33.8,59.55,27,66.39,16.55,76.81a2.39,2.39,0,0,1-3.37,0h0a2.39,2.39,0,0,1,0-3.37L23.59,63l6.84-6.84L38.61,48,48,38.61l8.18-8.18L63,23.59,73.43,13.18a2.39,2.39,0,0,1,3.37,0h0a2.39,2.39,0,0,1,0,3.37L66.39,27,59.55,33.8,51.37,42"/><path class="cls-2" d="M51.37,48l8.18,8.18L66.39,63,76.81,73.43a2.39,2.39,0,0,1,0,3.37h0a2.39,2.39,0,0,1-3.37,0L63,66.39l-6.84-6.84L48,51.37,38.61,42,30.43,33.8,23.59,27,13.18,16.55a2.39,2.39,0,0,1,0-3.37h0a2.39,2.39,0,0,1,3.37,0L27,23.59l6.84,6.84L42,38.61"/><path class="cls-2" d="M51.63,42.61h36A2.38,2.38,0,0,1,90,45h0a2.39,2.39,0,0,1-2.39,2.39H2.39A2.39,2.39,0,0,1,0,45H0a2.39,2.39,0,0,1,2.39-2.39h36"/><path class="cls-3" d="M45,17A28,28,0,1,0,73,45,28,28,0,0,0,45,17Zm0,46.34A18.36,18.36,0,1,1,63.35,45,18.36,18.36,0,0,1,45,63.35Z"/><circle class="cls-3" cx="44.99" cy="44.99" r="7.05"/></g></g></svg>
