<?xml version="1.0" encoding="utf-8"?>
<!-- Generator: Adobe Illustrator 21.1.0, SVG Export Plug-In . SVG Version: 6.00 Build 0)  -->
<svg version="1.1" id="Camada_1" xmlns="http://www.w3.org/2000/svg" xmlns:xlink="http://www.w3.org/1999/xlink" x="0px" y="0px"
	 viewBox="0 0 400 400" style="enable-background:new 0 0 400 400;" xml:space="preserve">
<style type="text/css">
	.st0{fill:#62B1C4;}
	.st1{fill:#2E2E2D;}
	.st2{fill:#444141;}
	.st3{fill:#F3B31B;}
</style>
<g>
	<g>
		<circle class="st0" cx="200" cy="200" r="185.6"/>
	</g>
	<g>
		<path class="st1" d="M278,270.5c-50.7,39.5-115.3,39.5-166.1,0c0-37.6,0-75.1,0-113.3c55.4,0,110.7,0,166.1,0
			C278,195.4,278,232.9,278,270.5z"/>
		<polygon class="st2" points="49.4,158.5 202.3,220.4 340,154.5 195.7,99.8 		"/>
		<path class="st1" d="M341.3,216.5c-1.3,0-2.6-1.3-2.6-2.6v-56.7c0-4-4.6-4.6-5.3-5.3L199,157.2l0,0c-1.3,0-2.6-1.3-2.6-2.6
			s1.3-2.6,2.6-2.6l135.1-5.3l0,0c3.3,0.7,9.9,3.3,9.9,10.5v56.7C343.9,215.2,342.6,216.5,341.3,216.5z"/>
		<g>
			<path class="st3" d="M350.5,257.3l-5.3-50.7c0-1.3-0.7-2-2-2H340c-0.7,0-2,0.7-2,2l-5.3,50.7c-0.7,7.2,3.3,13.2,9.2,13.2
				C347.2,270.5,351.2,264.6,350.5,257.3z"/>
			<ellipse class="st3" cx="341.3" cy="193.4" rx="5.3" ry="5.3"/>
		</g>
	</g>
</g>
</svg>
