<?xml version="1.0" ?><!DOCTYPE svg  PUBLIC '-//W3C//DTD SVG 1.1//EN'  'http://www.w3.org/Graphics/SVG/1.1/DTD/svg11.dtd'><svg enable-background="new 0 0 128 128" id="Слой_1" version="1.1" viewBox="0 0 128 128" xml:space="preserve" xmlns="http://www.w3.org/2000/svg" xmlns:xlink="http://www.w3.org/1999/xlink"><g><circle cx="64" cy="64" fill="#C1E1CA" r="62"/><g><g><path d="M110.3,22.8H59c-8.3,0-15,6.7-15,15v52.5c0,8.3,6.7,15,15,15h51.3C120,94.3,126,79.8,126,64     S120,33.7,110.3,22.8z" fill="#9E715F"/></g><g><path d="M59,104c-7.6,0-13.8-6.2-13.8-13.8V37.8C45.2,30.2,51.4,24,59,24h52.4c-0.7-0.9-1.5-1.7-2.2-2.5H59     c-9,0-16.2,7.3-16.2,16.2v52.5c0,9,7.3,16.2,16.2,16.2h50.1c0.8-0.8,1.5-1.6,2.2-2.5H59z" fill="#2D2E2D"/></g><g><path d="M111.8,58.3c-4.8-2.9-10.9-2.9-15.7,0L44,90.2c0,8.3,6.7,15,15,15h51.3c9.2-10.3,15-23.6,15.7-38.3     L111.8,58.3z" fill="#9E715F"/></g><g><path d="M59,104c-7.4,0-13.4-5.8-13.7-13.1l51.6-31.6c4.3-2.6,10-2.6,14.4,0l14.7,9c0.1-0.9,0.1-1.9,0.1-2.9     l-13.5-8.3c-2.6-1.6-5.5-2.4-8.5-2.4s-5.9,0.8-8.5,2.4l-52.2,32c-0.4,0.2-0.6,0.6-0.6,1.1c0,9,7.3,16.2,16.2,16.2h50.1     c0.8-0.8,1.5-1.6,2.2-2.5H59z" fill="#2D2E2D"/></g><g opacity="0.15"><path d="M110.3,22.8H59c-8.3,0-15,6.7-15,15v10.9l46.4,31.9c4,2.8,8.7,4.2,13.6,4.2s9.6-1.5,13.6-4.2l7.3-5     c0.7-3.7,1.1-7.6,1.1-11.5C126,48.2,120,33.7,110.3,22.8z" fill="#04080A"/></g><g><path d="M44,37.8l51.5,35.4c5.1,3.5,11.9,3.5,17,0l13.5-9.3c0-15.8-6-30.2-15.7-41.1H59     C50.7,22.8,44,29.5,44,37.8z" fill="#EEEBA8"/></g><g><path d="M126,62.4l-14.2,9.7c-2.3,1.6-5,2.4-7.8,2.4s-5.5-0.8-7.8-2.4l-50.9-35C45.6,29.8,51.6,24,59,24h52.4     c-0.7-0.9-1.5-1.7-2.2-2.5H59c-9,0-16.2,7.3-16.2,16.2c0,0.4,0.2,0.8,0.5,1l51.5,35.4c2.7,1.9,5.9,2.9,9.2,2.9s6.5-1,9.2-2.9     l12.8-8.8c0-0.5,0-0.9,0-1.4C126,63.5,126,62.9,126,62.4z" fill="#2D2E2D"/></g></g></g></svg>