<?xml version="1.0" encoding="utf-8"?>
<!-- Generator: Adobe Illustrator 21.1.0, SVG Export Plug-In . SVG Version: 6.00 Build 0)  -->
<svg version="1.1" id="Camada_1" xmlns="http://www.w3.org/2000/svg" xmlns:xlink="http://www.w3.org/1999/xlink" x="0px" y="0px"
	 viewBox="0 0 400 400" style="enable-background:new 0 0 400 400;" xml:space="preserve">
<style type="text/css">
	.st0{fill:#62B1C4;}
	.st1{fill:#F3B31B;}
	.st2{fill:#328162;}
	.st3{fill:#006C31;}
	.st4{fill:#F1F3F7;}
</style>
<g>
	<g>
		<circle class="st0" cx="200" cy="200" r="185.6"/>
	</g>
	<g>
		<path class="st1" d="M322.2,106.3H78c-4.6,0-8.4,3.8-8.4,8.4v170.7c0,4.6,3.8,8.4,8.4,8.4h244c4.6,0,8.4-3.8,8.4-8.4V114.7
			C330.6,110,326.8,106.3,322.2,106.3z"/>
		<rect x="88" y="124.1" class="st2" width="224.1" height="151.8"/>
		<rect x="88" y="272.6" class="st3" width="224.1" height="3.1"/>
		<path class="st4" d="M144,263.8h-26.2c-1.3,0-2.1,1-2.1,2.1v6.5h30.4v-6.5C146.1,264.8,145,263.8,144,263.8z"/>
	</g>
</g>
</svg>
